<?xml version="1.0" encoding="utf-8"?>
<svg width="695px" height="749px" viewBox="0 0 695 749" version="1.1" xmlns:xlink="http://www.w3.org/1999/xlink" xmlns="http://www.w3.org/2000/svg">
  <desc>Created with Lunacy</desc>
  <defs>
    <linearGradient x1="0.9988519" y1="0.00229624147" x2="0" y2="1" id="gradient_1">
      <stop offset="0" stop-color="#31FB9A" />
      <stop offset="0.354360223" stop-color="#31FBE6" />
      <stop offset="0.7804318" stop-color="#0088FF" />
      <stop offset="1" stop-color="#124BFF" />
    </linearGradient>
    <linearGradient x1="0.9988519" y1="0.00229624147" x2="0" y2="1" id="gradient_2">
      <stop offset="0" stop-color="#31FB9A" />
      <stop offset="0" stop-color="#31FBE6" />
      <stop offset="0.7804318" stop-color="#0088FF" />
      <stop offset="1" stop-color="#124BFF" />
    </linearGradient>
  </defs>
  <g id="Group-8" transform="translate(1.5 1.5)">
    <g id="Group-6-Copy-2" transform="matrix(0.7660444 0.6427876 -0.6427876 0.7660444 340.187 0)">
      <path d="M28 56C43.464 56 56 43.464 56 28C56 12.536 43.464 0 28 0C12.536 0 0 12.536 0 28C0 43.464 12.536 56 28 56Z" transform="translate(236.2471 235.2473)" id="Oval-Copy-18" fill="none" stroke="url(#gradient_1)" stroke-width="1" />
      <path d="M190 380C294.934 380 380 294.934 380 190C380 85.0659 294.934 0 190 0C85.0659 0 0 85.0659 0 190" transform="matrix(0.8191521 0.5735765 -0.5735765 0.8191521 217.959 -0.0002441406)" id="Oval-Copy-19" fill="none" stroke="url(#gradient_1)" stroke-width="2" />
      <path d="M0 37.5595C42.5174 37.5595 81.773 23.594 113.43 -3.33595e-14" transform="matrix(7.346681E-09 1 -1 7.346681E-09 111.8071 264.6182)" id="Oval-Copy-20" fill="none" stroke="url(#gradient_1)" stroke-width="3" />
      <path d="M163 326C253.022 326 326 253.022 326 163C326 72.9776 253.022 0 163 0C72.9776 0 0 72.9776 0 163" transform="matrix(-0.9961947 -0.08715589 0.08715589 -0.9961947 412.7915 441.2046)" id="Oval-Copy-21" fill="none" stroke="url(#gradient_1)" stroke-width="2" />
      <path d="M129 258C200.245 258 258 200.245 258 129C258 57.7553 200.245 0 129 0C57.7553 0 0 57.7553 0 129" transform="matrix(-0.7071068 0.7071067 -0.7071067 -0.7071068 452.6812 266.2471)" id="Oval-Copy-23" fill="none" stroke="url(#gradient_1)" stroke-width="2" />
    </g>
    <path d="M8.5 16C13.1944 16 17 12.4183 17 8C17 3.58172 13.1944 0 8.5 0C3.80558 0 0 3.58172 0 8C0 12.4183 3.80558 16 8.5 16Z" transform="translate(126.5684 330.606)" id="Oval-Copy-5" fill="#31FCCD" stroke="none" />
    <path d="M4 8C6.20914 8 8 6.20914 8 4C8 1.79086 6.20914 0 4 0C1.79086 0 0 1.79086 0 4C0 6.20914 1.79086 8 4 8Z" transform="translate(96.56836 449.606)" id="Oval-Copy-7" fill="url(#gradient_2)" stroke="none" />
    <path d="M8 16C12.4183 16 16 12.4183 16 8C16 3.58172 12.4183 0 8 0C3.58172 0 0 3.58172 0 8C0 12.4183 3.58172 16 8 16Z" transform="translate(267.5684 671.606)" id="Oval-Copy-6" fill="#21A9F8" stroke="none" />
  </g>
</svg>