<?xml version="1.0" encoding="utf-8"?>
<svg width="233px" height="532px" viewBox="0 0 233 532" version="1.1" xmlns:xlink="http://www.w3.org/1999/xlink" xmlns="http://www.w3.org/2000/svg">
  <desc>Created with Lunacy</desc>
  <defs>
    <linearGradient x1="0.9988519" y1="0.00229624147" x2="0" y2="1" id="gradient_1">
      <stop offset="0" stop-color="#31FB9A" />
      <stop offset="0.354360223" stop-color="#31FBE6" />
      <stop offset="0.7804318" stop-color="#0088FF" />
      <stop offset="1" stop-color="#124BFF" />
    </linearGradient>
  </defs>
  <g id="CTABand_Graphic" transform="translate(-298 1)">
    <g id="Group-6">
      <path d="M190 380C294.934 380 380 294.934 380 190C380 85.0659 294.934 0 190 0C85.0659 0 0 85.0659 0 190" transform="matrix(0.8191521 0.5735765 -0.5735765 0.8191521 218.6469 0.3815918)" id="Oval-Copy-19" fill="none" stroke="url(#gradient_1)" stroke-width="2" />
      <path d="M163 326C253.022 326 326 253.022 326 163C326 72.9776 253.022 0 163 0C72.9776 0 0 72.9776 0 163" transform="matrix(-0.9961947 -0.08715588 0.08715588 -0.9961947 413.4796 441.5862)" id="Oval-Copy-21" fill="none" stroke="url(#gradient_1)" stroke-width="2" />
      <path d="M129 258C200.245 258 258 200.245 258 129C258 57.7553 200.245 0 129 0C57.7553 0 0 57.7553 0 129" transform="matrix(-0.7071068 0.7071067 -0.7071067 -0.7071068 453.3687 266.6289)" id="Oval-Copy-23" fill="none" stroke="url(#gradient_1)" stroke-width="2" />
    </g>
    <path d="M5 10C7.76142 10 10 7.76142 10 5C10 2.23858 7.76142 0 5 0C2.23858 0 0 2.23858 0 5C0 7.76142 2.23858 10 5 10Z" transform="translate(498 262)" id="Oval-Copy-12" fill="#0DA7F9" stroke="none" />
    <path d="M3.5 7C5.433 7 7 5.433 7 3.5C7 1.567 5.433 0 3.5 0C1.567 0 0 1.567 0 3.5C0 5.433 1.567 7 3.5 7Z" transform="translate(345 134)" id="Oval-Copy-13" fill="#31FBB9" stroke="none" />
  </g>
</svg>