<?xml version="1.0" encoding="utf-8"?>
<svg width="170px" height="143px" viewBox="0 0 170 143" version="1.1" xmlns:xlink="http://www.w3.org/1999/xlink" xmlns="http://www.w3.org/2000/svg">
  <desc>Created with Lunacy</desc>
  <defs>
    <linearGradient x1="0.9988519" y1="0.00229624147" x2="0" y2="1" id="gradient_1">
      <stop offset="0" stop-color="#31FB9A" />
      <stop offset="0.354360223" stop-color="#31FBE6" />
      <stop offset="0.7804318" stop-color="#0088FF" />
      <stop offset="1" stop-color="#124BFF" />
    </linearGradient>
    <linearGradient x1="3.98911262" y1="-2.14195085" x2="0" y2="1" id="gradient_2">
      <stop offset="0" stop-color="#31FB9A" />
      <stop offset="0.354360223" stop-color="#31FBE6" />
      <stop offset="0.7804318" stop-color="#0088FF" />
      <stop offset="1" stop-color="#124BFF" />
    </linearGradient>
    <linearGradient x1="2.855535" y1="-1.31442642" x2="0" y2="1" id="gradient_3">
      <stop offset="0" stop-color="#31FB9A" />
      <stop offset="0.354360223" stop-color="#31FBE6" />
      <stop offset="0.7804318" stop-color="#0088FF" />
      <stop offset="1" stop-color="#124BFF" />
    </linearGradient>
    <linearGradient x1="2.855535" y1="-1.31442642" x2="-0.506399632" y2="1.62272131" id="gradient_4">
      <stop offset="0" stop-color="#31FB9A" />
      <stop offset="0.354360223" stop-color="#31FBE6" />
      <stop offset="0.7804318" stop-color="#0088FF" />
      <stop offset="1" stop-color="#124BFF" />
    </linearGradient>
    <linearGradient x1="2.855535" y1="-1.31442642" x2="-2.90485787" y2="3.478757" id="gradient_5">
      <stop offset="0" stop-color="#31FB9A" />
      <stop offset="0.354360223" stop-color="#31FBE6" />
      <stop offset="0.7804318" stop-color="#0088FF" />
      <stop offset="1" stop-color="#124BFF" />
    </linearGradient>
    <linearGradient x1="2.855535" y1="-1.31442642" x2="-1.301586" y2="2.01298046" id="gradient_6">
      <stop offset="0" stop-color="#31FB9A" />
      <stop offset="0.354360223" stop-color="#31FBE6" />
      <stop offset="0.7804318" stop-color="#0088FF" />
      <stop offset="1" stop-color="#124BFF" />
    </linearGradient>
    <linearGradient x1="2.855535" y1="-1.31442642" x2="-2.04078674" y2="2.75449538" id="gradient_7">
      <stop offset="0" stop-color="#31FB9A" />
      <stop offset="0.354360223" stop-color="#31FBE6" />
      <stop offset="0.7804318" stop-color="#0088FF" />
      <stop offset="1" stop-color="#124BFF" />
    </linearGradient>
  </defs>
  <g id="Group-5" transform="translate(0.6000977 0.5999756)">
    <path d="M6.92779e-15 124.8C34.4626 124.8 62.4 96.8626 62.4 62.4C62.4 27.9374 34.4626 0 6.92779e-15 0" transform="matrix(0.8660253 0.5000002 -0.5000002 0.8660253 112.98 0.7600136)" id="Oval" fill="none" stroke="url(#gradient_1)" stroke-width="0.8" />
    <g id="Group-19" transform="translate(43 18.4)">
      <g id="Group-18" transform="translate(0.8383377 0.3533506)">
        <path d="M3.45946 0C5.36953 0 6.91892 1.53937 6.91892 3.43817C6.91892 5.33782 5.36953 6.87719 3.45946 6.87719C1.54852 6.87719 0 5.33782 0 3.43817C0 1.53937 1.54852 0 3.45946 0Z" transform="translate(0.6918919 53.64211)" id="Stroke-4" fill="none" stroke="url(#gradient_2)" stroke-width="0.96" stroke-linecap="round" stroke-linejoin="round" />
        <path d="M3.45946 0C5.36953 0 6.91892 1.53937 6.91892 3.43817C6.91892 5.33782 5.36953 6.87719 3.45946 6.87719C1.54852 6.87719 0 5.33782 0 3.43817C0 1.53937 1.54852 0 3.45946 0Z" transform="translate(0 15.81754)" id="Stroke-6" fill="none" stroke="url(#gradient_3)" stroke-width="0.96" stroke-linecap="round" stroke-linejoin="round" />
        <path d="M3.45946 0C5.3704 0 6.91892 1.53985 6.91892 3.43816C6.91892 5.33734 5.3704 6.87719 3.45946 6.87719C1.54852 6.87719 0 5.33734 0 3.43816C0 1.53985 1.54852 0 3.45946 0Z" transform="translate(35.28649 31.63509)" id="Stroke-8" fill="none" stroke="url(#gradient_4)" stroke-width="0.96" stroke-linecap="round" stroke-linejoin="round" />
        <path d="M3.45989 0C5.37021 0 6.91892 1.53937 6.91892 3.43817C6.91892 5.33782 5.37021 6.87719 3.45989 6.87719C1.54871 6.87719 0 5.33782 0 3.43817C0 1.53937 1.54871 0 3.45989 0Z" transform="translate(69.18919 15.81754)" id="Stroke-10" fill="none" stroke="url(#gradient_5)" stroke-width="0.96" stroke-linecap="round" stroke-linejoin="round" />
        <path d="M3.45946 0C5.36953 0 6.91892 1.53918 6.91892 3.4386C6.91892 5.33715 5.36953 6.87719 3.45946 6.87719C1.54852 6.87719 0 5.33715 0 3.4386C0 1.53918 1.54852 0 3.45946 0Z" transform="translate(35.28649 0)" id="Stroke-12" fill="none" stroke="url(#gradient_6)" stroke-width="0.96" stroke-linecap="round" stroke-linejoin="round" />
        <path d="M3.45989 0C5.37021 0 6.91892 1.53937 6.91892 3.43817C6.91892 5.33782 5.37021 6.87719 3.45989 6.87719C1.54871 6.87719 0 5.33782 0 3.43817C0 1.53937 1.54871 0 3.45989 0Z" transform="translate(69.88108 54.32983)" id="Stroke-14" fill="none" stroke="url(#gradient_7)" stroke-width="0.96" stroke-linecap="round" stroke-linejoin="round" />
        <path d="M3.45946 0C5.36953 0 6.91892 1.53918 6.91892 3.43859C6.91892 5.33801 5.36953 6.87719 3.45946 6.87719C1.54852 6.87719 0 5.33801 0 3.43859C0 1.53918 1.54852 0 3.45946 0Z" transform="translate(35.28649 71.5228)" id="Stroke-16" fill="none" stroke="url(#gradient_3)" stroke-width="0.96" stroke-linecap="round" stroke-linejoin="round" />
      </g>
    </g>
    <path d="M4.8 9.6C7.45097 9.6 9.6 7.45097 9.6 4.8C9.6 2.14903 7.45097 0 4.8 0C2.14903 0 0 2.14903 0 4.8C0 7.45097 2.14903 9.6 4.8 9.6Z" transform="translate(15.2 80.8)" id="Oval-Copy-3" fill="#31FCCD" stroke="none" />
    <path d="M2.4 4.8C3.72548 4.8 4.8 3.72549 4.8 2.4C4.8 1.07452 3.72548 0 2.4 0C1.07452 0 0 1.07452 0 2.4C0 3.72549 1.07452 4.8 2.4 4.8Z" transform="translate(0 75.2)" id="Oval-Copy-4" fill="#1ECFEF" stroke="none" />
  </g>
</svg>