<?xml version="1.0" encoding="utf-8"?>
<svg width="116px" height="103px" viewBox="0 0 116 103" version="1.1" xmlns:xlink="http://www.w3.org/1999/xlink" xmlns="http://www.w3.org/2000/svg">
  <desc>Created with Lunacy</desc>
  <defs>
    <linearGradient x1="0.9988519" y1="0.00229624147" x2="0" y2="1" id="gradient_1">
      <stop offset="0" stop-color="#31FB9A" />
      <stop offset="0.354360223" stop-color="#31FBE6" />
      <stop offset="0.7804318" stop-color="#0088FF" />
      <stop offset="1" stop-color="#124BFF" />
    </linearGradient>
    <linearGradient x1="0.9988519" y1="0.00229624147" x2="0.333609641" y2="1.861442" id="gradient_2">
      <stop offset="0" stop-color="#31FB9A" />
      <stop offset="0.354360223" stop-color="#31FBE6" />
      <stop offset="0.613652" stop-color="#0088FF" />
      <stop offset="1" stop-color="#124BFF" />
    </linearGradient>
    <path d="M0 82.4L78.4 82.4L78.4 0L0 0L0 82.4Z" id="path_1" />
    <clipPath id="mask_1">
      <use xlink:href="#path_1" />
    </clipPath>
  </defs>
  <g id="Group-6" transform="translate(0.6445313 0.6444092)">
    <path d="M0 1.00977e-11L56 1.00977e-11L56 60" transform="matrix(-4.371139E-08 -1 1 -4.371139E-08 0.4000001 56.4)" id="Rectangle" fill="none" stroke="url(#gradient_1)" stroke-width="0.8" />
    <g id="Group-12" transform="translate(20 15.2)">
      <path d="M29.4402 15.2L7.35977 15.2C3.31201 15.2 0 11.7801 0 7.60059C0 3.42103 3.31201 0 7.35977 0L29.4402 0C33.488 0 36.8 3.42103 36.8 7.60059C36.8 11.7801 33.488 15.2 29.4402 15.2Z" transform="translate(20.8 0.8)" id="Stroke-1" fill="none" stroke="url(#gradient_2)" stroke-width="1.2888" stroke-linecap="round" stroke-linejoin="round" />
      <path d="M29.4402 15.2L7.35977 15.2C3.31201 15.2 0 11.7801 0 7.60059C0 3.42103 3.31201 0 7.35977 0L29.4402 0C33.488 0 36.8 3.42103 36.8 7.60059C36.8 11.7801 33.488 15.2 29.4402 15.2Z" transform="translate(20.8 66.4)" id="Stroke-3" fill="none" stroke="url(#gradient_2)" stroke-width="1.2888" stroke-linecap="round" stroke-linejoin="round" />
      <path d="M18.4 24.8L0 12.4L18.4 0L36.8 12.4L18.4 24.8Z" transform="translate(20.8 29.6)" id="Stroke-5" fill="none" stroke="url(#gradient_2)" stroke-width="1.2888" stroke-linecap="round" stroke-linejoin="round" />
      <path d="M0 82.4L78.4 82.4L78.4 0L0 0L0 82.4Z" id="Clip-8" fill="none" stroke="none" />
      <g clip-path="url(#mask_1)">
        <path d="M0.3356 12.8L0.4644 12.8L0.4644 0L0.3356 0L0.3356 12.8Z" transform="translate(39.2 16)" id="Stroke-7" fill="none" stroke="url(#gradient_2)" stroke-width="1.2888" stroke-linecap="round" stroke-linejoin="round" />
        <path d="M0.3356 12.8L0.4644 12.8L0.4644 0L0.3356 0L0.3356 12.8Z" transform="translate(39.2 54.4)" id="Stroke-9" fill="none" stroke="url(#gradient_2)" stroke-width="1.2888" stroke-linecap="round" stroke-linejoin="round" />
        <path d="M3.61991 33.6L0 33.6L0 33.4156L3.61991 33.4156C12.5523 33.4156 19.8202 25.9611 19.8202 16.8006C19.8202 7.63893 12.5523 0.184432 3.61991 0.184432L0 0.184432L0 0L3.61991 0C12.6523 0 20 7.53634 20 16.8006C20 26.0637 12.6523 33.6 3.61991 33.6Z" transform="translate(57.6 8)" id="Stroke-10" fill="none" stroke="url(#gradient_2)" stroke-width="1.2888" stroke-linecap="round" stroke-linejoin="round" />
        <path d="M20 33.6L16.3801 33.6C7.34772 33.6 0 26.0639 0 16.8C0 7.53608 7.34772 0 16.3801 0L20 0L20 0.184425L16.3801 0.184425C7.44774 0.184425 0.179816 7.63982 0.179816 16.8C0.179816 25.9602 7.44774 33.4156 16.3801 33.4156L20 33.4156L20 33.6Z" transform="translate(0.8 40.8)" id="Stroke-11" fill="none" stroke="url(#gradient_2)" stroke-width="1.2888" stroke-linecap="round" stroke-linejoin="round" />
      </g>
    </g>
    <path d="M4.8 9.6C7.45097 9.6 9.6 7.45097 9.6 4.8C9.6 2.14903 7.45097 0 4.8 0C2.14903 0 0 2.14903 0 4.8C0 7.45097 2.14903 9.6 4.8 9.6Z" transform="translate(104 78.4)" id="Oval-Copy-8" fill="#31FBC1" stroke="none" />
    <path d="M2.4 4.8C3.72549 4.8 4.8 3.72549 4.8 2.4C4.8 1.07452 3.72549 0 2.4 0C1.07452 0 0 1.07452 0 2.4C0 3.72549 1.07452 4.8 2.4 4.8Z" transform="translate(100 95.2)" id="Oval-Copy-9" fill="#0B64FF" stroke="none" />
  </g>
</svg>